<svg width="48" height="48" viewBox="0 0 48 48" fill="none" xmlns="http://www.w3.org/2000/svg">
<path d="M24 18C27.866 18 31 14.866 31 11C31 7.13401 27.866 4 24 4C20.134 4 17 7.13401 17 11C17 14.866 20.134 18 24 18Z" stroke="#58B92A" stroke-width="2" stroke-linecap="round" stroke-linejoin="round"/>
<path d="M4 41C4 32.163 12.059 25 22 25" stroke="#58B92A" stroke-width="2" stroke-linecap="round" stroke-linejoin="round"/>
<path d="M34 43C38.9706 43 43 38.9706 43 34C43 29.0294 38.9706 25 34 25C29.0294 25 25 29.0294 25 34C25 38.9706 29.0294 43 34 43Z" stroke="#58B92A" stroke-width="2"/>
<path d="M33 31V35H37" stroke="#58B92A" stroke-width="2" stroke-linecap="round" stroke-linejoin="round"/>
</svg>
