<svg width="85" height="75" viewBox="0 0 85 75" fill="none" xmlns="http://www.w3.org/2000/svg">
<path d="M36.9424 26V7.9C36.9424 6.51515 36.9438 5.59277 36.9999 4.88324C37.0542 4.19591 37.1504 3.88006 37.2483 3.68018C37.5412 3.08229 38.0247 2.59882 38.6226 2.30592C38.8224 2.208 39.1383 2.11183 39.8256 2.05752C40.5352 2.00145 41.4575 2 42.8424 2H51.3723C52.7572 2 53.6796 2.00145 54.3891 2.05752C55.0764 2.11183 55.3923 2.208 55.5922 2.30592C56.1901 2.59882 56.6735 3.08229 56.9664 3.68018C57.0643 3.88006 57.1605 4.19591 57.2148 4.88324C57.2709 5.59277 57.2723 6.51515 57.2723 7.9V26H36.9424Z" stroke="#5375EB" stroke-width="4"/>
<path d="M58.4919 47.3489V26.2251H76.3975C77.7824 26.2251 78.7048 26.2265 79.4143 26.2826C80.1016 26.3369 80.4175 26.4331 80.6174 26.531C81.2153 26.8239 81.6987 27.3074 81.9916 27.9053C82.0896 28.1051 82.1857 28.421 82.24 29.1083C82.2961 29.8179 82.2975 30.7402 82.2975 32.1251V41.4489C82.2975 42.8338 82.2961 43.7562 82.24 44.4657C82.1857 45.153 82.0896 45.4689 81.9916 45.6688C81.6987 46.2666 81.2153 46.7501 80.6174 47.043C80.4175 47.1409 80.1016 47.2371 79.4143 47.2914C78.7048 47.3475 77.7824 47.3489 76.3975 47.3489H58.4919Z" stroke="#5375EB" stroke-width="4"/>
<path d="M37.8175 72.287V69.904C37.8175 58.2456 46.752 48.6739 58.1475 47.6624V66.387C58.1475 67.7719 58.146 68.6942 58.0899 69.4038C58.0356 70.0911 57.9395 70.407 57.8415 70.6068C57.5486 71.2047 57.0652 71.6882 56.4673 71.9811C56.2674 72.079 55.9516 72.1752 55.2642 72.2295C54.5547 72.2856 53.6323 72.287 52.2475 72.287H37.8175Z" stroke="#5375EB" stroke-width="4"/>
<path d="M2 43.287L2 32.187C2 30.8022 2.00145 29.8798 2.05752 29.1703C2.11183 28.4829 2.208 28.1671 2.30592 27.9672C2.59882 27.3693 3.08229 26.8858 3.68018 26.5929C3.88006 26.495 4.19591 26.3988 4.88324 26.3445C5.59277 26.2885 6.51515 26.287 7.9 26.287L57.4001 26.287C56.4007 35.8403 48.3221 43.287 38.5041 43.287H2Z" stroke="#5375EB" stroke-width="4"/>
<path d="M6.37744 37.287V31.617H7.71444C8.17644 31.617 8.53577 31.68 8.79244 31.806C9.05377 31.932 9.23811 32.1257 9.34544 32.387C9.45744 32.6484 9.51344 32.9797 9.51344 33.381V35.453C9.51344 35.8637 9.45744 36.2067 9.34544 36.482C9.23811 36.7527 9.05611 36.9557 8.79944 37.091C8.54744 37.2217 8.19977 37.287 7.75644 37.287H6.37744ZM7.41344 36.566H7.72844C7.96644 36.566 8.13677 36.524 8.23944 36.44C8.34211 36.356 8.40511 36.2347 8.42844 36.076C8.45177 35.9127 8.46344 35.7144 8.46344 35.481V33.311C8.46344 33.0824 8.44711 32.898 8.41444 32.758C8.38177 32.618 8.31411 32.5154 8.21144 32.45C8.10877 32.3847 7.94311 32.352 7.71444 32.352H7.41344V36.566ZM10.2739 37.287V31.617H12.6539V32.345H11.3099V33.976H12.3669V34.697H11.3099V36.573H12.6679V37.287H10.2739ZM13.2681 37.287V31.617H13.9891L15.3681 34.851V31.617H16.2221V37.287H15.5361L14.1501 33.899V37.287H13.2681ZM18.5105 37.364C18.1699 37.364 17.8852 37.2987 17.6565 37.168C17.4279 37.0327 17.2552 36.8367 17.1385 36.58C17.0219 36.3234 16.9565 36.0084 16.9425 35.635L17.8315 35.46C17.8409 35.6794 17.8665 35.873 17.9085 36.041C17.9552 36.209 18.0229 36.3397 18.1115 36.433C18.2049 36.5217 18.3262 36.566 18.4755 36.566C18.6435 36.566 18.7625 36.517 18.8325 36.419C18.9025 36.3164 18.9375 36.188 18.9375 36.034C18.9375 35.7867 18.8815 35.5837 18.7695 35.425C18.6575 35.2664 18.5082 35.1077 18.3215 34.949L17.6075 34.319C17.4069 34.1464 17.2459 33.955 17.1245 33.745C17.0079 33.5304 16.9495 33.2667 16.9495 32.954C16.9495 32.506 17.0802 32.1607 17.3415 31.918C17.6029 31.6754 17.9599 31.554 18.4125 31.554C18.6785 31.554 18.9002 31.596 19.0775 31.68C19.2549 31.7594 19.3949 31.8714 19.4975 32.016C19.6049 32.1607 19.6842 32.3264 19.7355 32.513C19.7869 32.695 19.8195 32.8887 19.8335 33.094L18.9515 33.248C18.9422 33.0707 18.9212 32.912 18.8885 32.772C18.8605 32.632 18.8069 32.5224 18.7275 32.443C18.6529 32.3637 18.5409 32.324 18.3915 32.324C18.2375 32.324 18.1185 32.3754 18.0345 32.478C17.9552 32.576 17.9155 32.6997 17.9155 32.849C17.9155 33.0404 17.9552 33.199 18.0345 33.325C18.1139 33.4464 18.2282 33.5724 18.3775 33.703L19.0845 34.326C19.3179 34.522 19.5162 34.753 19.6795 35.019C19.8475 35.2804 19.9315 35.5977 19.9315 35.971C19.9315 36.2417 19.8709 36.482 19.7495 36.692C19.6329 36.902 19.4672 37.0677 19.2525 37.189C19.0425 37.3057 18.7952 37.364 18.5105 37.364ZM22.0815 37.364C21.6802 37.364 21.3605 37.2894 21.1225 37.14C20.8845 36.9907 20.7142 36.776 20.6115 36.496C20.5088 36.216 20.4575 35.8847 20.4575 35.502V33.381C20.4575 32.9984 20.5088 32.6717 20.6115 32.401C20.7142 32.1257 20.8845 31.9157 21.1225 31.771C21.3605 31.6264 21.6802 31.554 22.0815 31.554C22.4922 31.554 22.8142 31.6264 23.0475 31.771C23.2855 31.9157 23.4558 32.1257 23.5585 32.401C23.6658 32.6717 23.7195 32.9984 23.7195 33.381V35.509C23.7195 35.887 23.6658 36.216 23.5585 36.496C23.4558 36.7714 23.2855 36.986 23.0475 37.14C22.8142 37.2894 22.4922 37.364 22.0815 37.364ZM22.0815 36.601C22.2542 36.601 22.3802 36.5637 22.4595 36.489C22.5435 36.4144 22.5995 36.3117 22.6275 36.181C22.6555 36.0504 22.6695 35.908 22.6695 35.754V33.143C22.6695 32.9844 22.6555 32.842 22.6275 32.716C22.5995 32.59 22.5435 32.492 22.4595 32.422C22.3802 32.3474 22.2542 32.31 22.0815 32.31C21.9182 32.31 21.7945 32.3474 21.7105 32.422C21.6265 32.492 21.5705 32.59 21.5425 32.716C21.5145 32.842 21.5005 32.9844 21.5005 33.143V35.754C21.5005 35.908 21.5122 36.0504 21.5355 36.181C21.5635 36.3117 21.6195 36.4144 21.7035 36.489C21.7875 36.5637 21.9135 36.601 22.0815 36.601ZM26.0258 37.364C25.6245 37.364 25.3048 37.2894 25.0668 37.14C24.8288 36.9907 24.6585 36.776 24.5558 36.496C24.4532 36.216 24.4018 35.8847 24.4018 35.502V33.381C24.4018 32.9984 24.4532 32.6717 24.5558 32.401C24.6585 32.1257 24.8288 31.9157 25.0668 31.771C25.3048 31.6264 25.6245 31.554 26.0258 31.554C26.4365 31.554 26.7585 31.6264 26.9918 31.771C27.2298 31.9157 27.4002 32.1257 27.5028 32.401C27.6102 32.6717 27.6638 32.9984 27.6638 33.381V35.509C27.6638 35.887 27.6102 36.216 27.5028 36.496C27.4002 36.7714 27.2298 36.986 26.9918 37.14C26.7585 37.2894 26.4365 37.364 26.0258 37.364ZM26.0258 36.601C26.1985 36.601 26.3245 36.5637 26.4038 36.489C26.4878 36.4144 26.5438 36.3117 26.5718 36.181C26.5998 36.0504 26.6138 35.908 26.6138 35.754V33.143C26.6138 32.9844 26.5998 32.842 26.5718 32.716C26.5438 32.59 26.4878 32.492 26.4038 32.422C26.3245 32.3474 26.1985 32.31 26.0258 32.31C25.8625 32.31 25.7388 32.3474 25.6548 32.422C25.5708 32.492 25.5148 32.59 25.4868 32.716C25.4588 32.842 25.4448 32.9844 25.4448 33.143V35.754C25.4448 35.908 25.4565 36.0504 25.4798 36.181C25.5078 36.3117 25.5638 36.4144 25.6478 36.489C25.7318 36.5637 25.8578 36.601 26.0258 36.601ZM28.4302 37.287V31.617H29.4662V36.573H30.8382V37.287H28.4302ZM32.8758 37.364C32.4558 37.364 32.1291 37.287 31.8958 37.133C31.6624 36.979 31.5014 36.7597 31.4128 36.475C31.3241 36.1904 31.2798 35.8497 31.2798 35.453V31.617H32.2878V35.572C32.2878 35.7494 32.2994 35.9174 32.3228 36.076C32.3461 36.23 32.3998 36.356 32.4838 36.454C32.5724 36.5474 32.7031 36.594 32.8758 36.594C33.0578 36.594 33.1884 36.5474 33.2678 36.454C33.3518 36.356 33.4054 36.23 33.4288 36.076C33.4568 35.9174 33.4708 35.7494 33.4708 35.572V31.617H34.4718V35.453C34.4718 35.8497 34.4274 36.1904 34.3388 36.475C34.2501 36.7597 34.0891 36.979 33.8558 37.133C33.6271 37.287 33.3004 37.364 32.8758 37.364ZM35.2866 37.287V31.617H36.3226V34.109L37.4426 31.617H38.4296L37.3446 34.151L38.5416 37.287H37.5126L36.5606 34.704L36.3226 35.138V37.287H35.2866ZM38.9142 37.287V36.328H39.8382V37.287H38.9142ZM40.5298 37.287V31.617H41.5658V34.109L42.6858 31.617H43.6728L42.5878 34.151L43.7848 37.287H42.7558L41.8038 34.704L41.5658 35.138V37.287H40.5298ZM45.5943 37.364C45.221 37.364 44.9247 37.2847 44.7053 37.126C44.486 36.9674 44.3273 36.7434 44.2293 36.454C44.136 36.16 44.0893 35.8147 44.0893 35.418V33.514C44.0893 33.108 44.136 32.758 44.2293 32.464C44.3227 32.17 44.486 31.946 44.7193 31.792C44.9573 31.6334 45.284 31.554 45.6993 31.554C46.0867 31.554 46.3947 31.6194 46.6233 31.75C46.852 31.8807 47.0153 32.0697 47.1133 32.317C47.216 32.5597 47.2673 32.856 47.2673 33.206V33.5H46.2803V33.178C46.2803 32.996 46.2663 32.8397 46.2383 32.709C46.215 32.5784 46.1637 32.4804 46.0843 32.415C46.0097 32.345 45.886 32.31 45.7133 32.31C45.5313 32.31 45.3983 32.3544 45.3143 32.443C45.235 32.5317 45.1837 32.6484 45.1603 32.793C45.1417 32.9377 45.1323 33.0964 45.1323 33.269V35.642C45.1323 35.838 45.1487 36.0084 45.1813 36.153C45.214 36.2977 45.2747 36.4097 45.3633 36.489C45.452 36.5637 45.578 36.601 45.7413 36.601C45.9093 36.601 46.0377 36.559 46.1263 36.475C46.215 36.391 46.2757 36.2744 46.3083 36.125C46.3457 35.9757 46.3643 35.7984 46.3643 35.593V35.061H45.7553V34.41H47.2953V37.287H46.6303L46.5533 36.727C46.4787 36.9137 46.3643 37.0677 46.2103 37.189C46.061 37.3057 45.8557 37.364 45.5943 37.364Z" fill="#FB6161"/>
</svg>
