<svg width="165" height="149" viewBox="0 0 165 149" fill="none" xmlns="http://www.w3.org/2000/svg">
<path d="M70.2629 51.8992V7.90011C70.2629 6.51527 70.2644 5.59289 70.3205 4.88335C70.3748 4.19602 70.4709 3.88018 70.5689 3.6803C70.8618 3.08241 71.3452 2.59893 71.9431 2.30603C72.143 2.20811 72.4588 2.11194 73.1462 2.05763C73.8557 2.00157 74.7781 2.00011 76.1629 2.00011H107.197C108.582 2.00011 109.505 2.00157 110.214 2.05763C110.901 2.11194 111.217 2.20811 111.417 2.30603C112.015 2.59893 112.498 3.08241 112.791 3.6803C112.889 3.88017 112.985 4.19602 113.04 4.88335C113.096 5.59289 113.097 6.51527 113.097 7.90012V51.8992H70.2629Z" stroke="#5375EB" stroke-width="4"/>
<path d="M112.745 95.9949V51.6323H156.37C157.755 51.6323 158.677 51.6338 159.387 51.6898C160.074 51.7441 160.39 51.8403 160.59 51.9382C161.188 52.2311 161.671 52.7146 161.964 53.3125C162.062 53.5124 162.158 53.8282 162.212 54.5155C162.268 55.2251 162.27 56.1474 162.27 57.5323V90.0949C162.27 91.4797 162.268 92.4021 162.212 93.1116C162.158 93.799 162.062 94.1148 161.964 94.3147C161.671 94.9126 161.188 95.3961 160.59 95.689C160.39 95.7869 160.074 95.883 159.387 95.9374C158.677 95.9934 157.755 95.9949 156.37 95.9949H112.745Z" stroke="#5375EB" stroke-width="4"/>
<path d="M69.9475 147V140.563C69.9475 132.681 69.9489 126.882 70.3 122.29C70.6496 117.72 71.337 114.511 72.6231 111.784C75.3953 105.907 80.1255 101.176 86.0029 98.4043C88.7295 97.1183 91.9386 96.4308 96.5089 96.0812C100.703 95.7605 105.905 95.7316 112.782 95.729V141.1C112.782 142.485 112.78 143.407 112.724 144.117C112.67 144.804 112.574 145.12 112.476 145.32C112.183 145.918 111.7 146.401 111.102 146.694C110.902 146.792 110.586 146.888 109.899 146.943C109.189 146.999 108.267 147 106.882 147H69.9475Z" stroke="#5375EB" stroke-width="4"/>
<path d="M2 88.1763L2 57.652C2 56.2671 2.00145 55.3447 2.05752 54.6352C2.11183 53.9479 2.208 53.632 2.30592 53.4322C2.59882 52.8343 3.08229 52.3508 3.68018 52.0579C3.88006 51.96 4.19591 51.8638 4.88324 51.8095C5.59277 51.7534 6.51515 51.752 7.9 51.752L112.543 51.752C112.536 60.2126 112.453 64.3437 111.507 67.7232C108.871 77.1427 101.51 84.5036 92.0904 87.14C88.4547 88.1576 83.9492 88.1763 74.1191 88.1763H2Z" stroke="#5375EB" stroke-width="4"/>
<path d="M8.976 70V57.04H12.032C13.088 57.04 13.9093 57.184 14.496 57.472C15.0933 57.76 15.5147 58.2027 15.76 58.8C16.016 59.3973 16.144 60.1547 16.144 61.072V65.808C16.144 66.7467 16.016 67.5307 15.76 68.16C15.5147 68.7787 15.0987 69.2427 14.512 69.552C13.936 69.8507 13.1413 70 12.128 70H8.976ZM11.344 68.352H12.064C12.608 68.352 12.9973 68.256 13.232 68.064C13.4667 67.872 13.6107 67.5947 13.664 67.232C13.7173 66.8587 13.744 66.4053 13.744 65.872V60.912C13.744 60.3893 13.7067 59.968 13.632 59.648C13.5573 59.328 13.4027 59.0933 13.168 58.944C12.9333 58.7947 12.5547 58.72 12.032 58.72H11.344V68.352ZM17.8823 70V57.04H23.3223V58.704H20.2503V62.432H22.6663V64.08H20.2503V68.368H23.3543V70H17.8823ZM24.726 70V57.04H26.374L29.526 64.432V57.04H31.478V70H29.91L26.742 62.256V70H24.726ZM36.7088 70.176C35.9301 70.176 35.2794 70.0267 34.7568 69.728C34.2341 69.4187 33.8394 68.9707 33.5728 68.384C33.3061 67.7973 33.1568 67.0773 33.1248 66.224L35.1568 65.824C35.1781 66.3253 35.2368 66.768 35.3328 67.152C35.4394 67.536 35.5941 67.8347 35.7968 68.048C36.0101 68.2507 36.2874 68.352 36.6288 68.352C37.0128 68.352 37.2848 68.24 37.4448 68.016C37.6048 67.7813 37.6848 67.488 37.6848 67.136C37.6848 66.5707 37.5568 66.1067 37.3008 65.744C37.0448 65.3813 36.7034 65.0187 36.2768 64.656L34.6448 63.216C34.1861 62.8213 33.8181 62.384 33.5408 61.904C33.2741 61.4133 33.1408 60.8107 33.1408 60.096C33.1408 59.072 33.4394 58.2827 34.0368 57.728C34.6341 57.1733 35.4501 56.896 36.4848 56.896C37.0928 56.896 37.5994 56.992 38.0048 57.184C38.4101 57.3653 38.7301 57.6213 38.9648 57.952C39.2101 58.2827 39.3914 58.6613 39.5088 59.088C39.6261 59.504 39.7008 59.9467 39.7328 60.416L37.7168 60.768C37.6954 60.3627 37.6474 60 37.5728 59.68C37.5088 59.36 37.3861 59.1093 37.2048 58.928C37.0341 58.7467 36.7781 58.656 36.4368 58.656C36.0848 58.656 35.8128 58.7733 35.6208 59.008C35.4394 59.232 35.3488 59.5147 35.3488 59.856C35.3488 60.2933 35.4394 60.656 35.6208 60.944C35.8021 61.2213 36.0634 61.5093 36.4048 61.808L38.0208 63.232C38.5541 63.68 39.0074 64.208 39.3808 64.816C39.7648 65.4133 39.9568 66.1387 39.9568 66.992C39.9568 67.6107 39.8181 68.16 39.5408 68.64C39.2741 69.12 38.8954 69.4987 38.4048 69.776C37.9248 70.0427 37.3594 70.176 36.7088 70.176ZM44.871 70.176C43.9537 70.176 43.223 70.0053 42.679 69.664C42.135 69.3227 41.7457 68.832 41.511 68.192C41.2763 67.552 41.159 66.7947 41.159 65.92V61.072C41.159 60.1973 41.2763 59.4507 41.511 58.832C41.7457 58.2027 42.135 57.7227 42.679 57.392C43.223 57.0613 43.9537 56.896 44.871 56.896C45.8097 56.896 46.5457 57.0613 47.079 57.392C47.623 57.7227 48.0123 58.2027 48.247 58.832C48.4923 59.4507 48.615 60.1973 48.615 61.072V65.936C48.615 66.8 48.4923 67.552 48.247 68.192C48.0123 68.8213 47.623 69.312 47.079 69.664C46.5457 70.0053 45.8097 70.176 44.871 70.176ZM44.871 68.432C45.2657 68.432 45.5537 68.3467 45.735 68.176C45.927 68.0053 46.055 67.7707 46.119 67.472C46.183 67.1733 46.215 66.848 46.215 66.496V60.528C46.215 60.1653 46.183 59.84 46.119 59.552C46.055 59.264 45.927 59.04 45.735 58.88C45.5537 58.7093 45.2657 58.624 44.871 58.624C44.4977 58.624 44.215 58.7093 44.023 58.88C43.831 59.04 43.703 59.264 43.639 59.552C43.575 59.84 43.543 60.1653 43.543 60.528V66.496C43.543 66.848 43.5697 67.1733 43.623 67.472C43.687 67.7707 43.815 68.0053 44.007 68.176C44.199 68.3467 44.487 68.432 44.871 68.432ZM53.8866 70.176C52.9693 70.176 52.2386 70.0053 51.6946 69.664C51.1506 69.3227 50.7613 68.832 50.5266 68.192C50.292 67.552 50.1746 66.7947 50.1746 65.92V61.072C50.1746 60.1973 50.292 59.4507 50.5266 58.832C50.7613 58.2027 51.1506 57.7227 51.6946 57.392C52.2386 57.0613 52.9693 56.896 53.8866 56.896C54.8253 56.896 55.5613 57.0613 56.0946 57.392C56.6386 57.7227 57.028 58.2027 57.2626 58.832C57.508 59.4507 57.6306 60.1973 57.6306 61.072V65.936C57.6306 66.8 57.508 67.552 57.2626 68.192C57.028 68.8213 56.6386 69.312 56.0946 69.664C55.5613 70.0053 54.8253 70.176 53.8866 70.176ZM53.8866 68.432C54.2813 68.432 54.5693 68.3467 54.7506 68.176C54.9426 68.0053 55.0706 67.7707 55.1346 67.472C55.1986 67.1733 55.2306 66.848 55.2306 66.496V60.528C55.2306 60.1653 55.1986 59.84 55.1346 59.552C55.0706 59.264 54.9426 59.04 54.7506 58.88C54.5693 58.7093 54.2813 58.624 53.8866 58.624C53.5133 58.624 53.2306 58.7093 53.0386 58.88C52.8466 59.04 52.7186 59.264 52.6546 59.552C52.5906 59.84 52.5586 60.1653 52.5586 60.528V66.496C52.5586 66.848 52.5853 67.1733 52.6386 67.472C52.7026 67.7707 52.8306 68.0053 53.0226 68.176C53.2146 68.3467 53.5026 68.432 53.8866 68.432ZM59.3823 70V57.04H61.7503V68.368H64.8863V70H59.3823ZM69.5436 70.176C68.5836 70.176 67.837 70 67.3036 69.648C66.7703 69.296 66.4023 68.7947 66.1996 68.144C65.997 67.4933 65.8956 66.7147 65.8956 65.808V57.04H68.1996V66.08C68.1996 66.4853 68.2263 66.8693 68.2796 67.232C68.333 67.584 68.4556 67.872 68.6476 68.096C68.8503 68.3093 69.149 68.416 69.5436 68.416C69.9596 68.416 70.2583 68.3093 70.4396 68.096C70.6316 67.872 70.7543 67.584 70.8076 67.232C70.8716 66.8693 70.9036 66.4853 70.9036 66.08V57.04H73.1916V65.808C73.1916 66.7147 73.0903 67.4933 72.8876 68.144C72.685 68.7947 72.317 69.296 71.7836 69.648C71.261 70 70.5143 70.176 69.5436 70.176ZM75.0541 70V57.04H77.4221V62.736L79.9821 57.04H82.2381L79.7581 62.832L82.4941 70H80.1421L77.9661 64.096L77.4221 65.088V70H75.0541ZM83.3458 70V67.808H85.4578V70H83.3458ZM87.0385 70V57.04H89.4065V62.736L91.9665 57.04H94.2225L91.7425 62.832L94.4785 70H92.1265L89.9505 64.096L89.4065 65.088V70H87.0385ZM98.6146 70.176C97.7613 70.176 97.084 69.9947 96.5826 69.632C96.0813 69.2693 95.7186 68.7573 95.4946 68.096C95.2813 67.424 95.1746 66.6347 95.1746 65.728V61.376C95.1746 60.448 95.2813 59.648 95.4946 58.976C95.708 58.304 96.0813 57.792 96.6146 57.44C97.1586 57.0773 97.9053 56.896 98.8546 56.896C99.74 56.896 100.444 57.0453 100.967 57.344C101.489 57.6427 101.863 58.0747 102.087 58.64C102.321 59.1947 102.439 59.872 102.439 60.672V61.344H100.183V60.608C100.183 60.192 100.151 59.8347 100.087 59.536C100.033 59.2373 99.916 59.0133 99.7346 58.864C99.564 58.704 99.2813 58.624 98.8866 58.624C98.4706 58.624 98.1666 58.7253 97.9746 58.928C97.7933 59.1307 97.676 59.3973 97.6226 59.728C97.58 60.0587 97.5586 60.4213 97.5586 60.816V66.24C97.5586 66.688 97.596 67.0773 97.6706 67.408C97.7453 67.7387 97.884 67.9947 98.0866 68.176C98.2893 68.3467 98.5773 68.432 98.9506 68.432C99.3346 68.432 99.628 68.336 99.8306 68.144C100.033 67.952 100.172 67.6853 100.247 67.344C100.332 67.0027 100.375 66.5973 100.375 66.128V64.912H98.9826V63.424H102.503V70H100.983L100.807 68.72C100.636 69.1467 100.375 69.4987 100.023 69.776C99.6813 70.0427 99.212 70.176 98.6146 70.176Z" fill="#FB6161"/>
</svg>
