<svg width="27" height="27" viewBox="0 0 27 27" fill="none" xmlns="http://www.w3.org/2000/svg">
<path d="M15.525 4.05C14.1138 4.04976 12.7318 4.45169 11.5408 5.20869C10.3498 5.96569 9.39921 7.04642 8.80038 8.32427C8.20155 9.60211 7.97928 11.0242 8.15961 12.4238C8.33993 13.8234 8.91539 15.1427 9.81855 16.227L4.2471 21.7971C4.12752 21.9162 4.05686 22.0757 4.04906 22.2443C4.04126 22.4128 4.09687 22.5782 4.20495 22.7078C4.31303 22.8374 4.46573 22.9218 4.63296 22.9444C4.80019 22.967 4.96981 22.9261 5.10841 22.8299L5.20291 22.7529L10.773 17.1815C11.6894 17.9443 12.776 18.4753 13.941 18.7294C15.1059 18.9835 16.315 18.9534 17.4658 18.6414C18.6167 18.3295 19.6755 17.7451 20.5527 16.9374C21.4298 16.1298 22.0996 15.1228 22.5054 14.0016C22.9111 12.8804 23.0409 11.678 22.8837 10.496C22.7265 9.31407 22.2869 8.18737 21.6022 7.2112C20.9175 6.23504 20.0077 5.43814 18.9499 4.88789C17.8921 4.33765 16.7174 4.05025 15.525 4.05ZM15.525 5.4C17.1362 5.4 18.6814 6.04005 19.8207 7.17933C20.96 8.31861 21.6 9.86381 21.6 11.475C21.6 13.0862 20.96 14.6314 19.8207 15.7707C18.6814 16.91 17.1362 17.55 15.525 17.55C13.9138 17.55 12.3686 16.91 11.2293 15.7707C10.09 14.6314 9.45001 13.0862 9.45001 11.475C9.45001 9.86381 10.09 8.31861 11.2293 7.17933C12.3686 6.04005 13.9138 5.4 15.525 5.4Z" fill="#7A91B4"/>
</svg>
