<svg width="240" height="45" viewBox="0 0 240 45" fill="none" xmlns="http://www.w3.org/2000/svg">
<path d="M29.4434 0.621094L27.6855 17.4082L44.5605 12.6182L45.8789 21.9785L30.1025 23.3848L40.3418 37.0518L31.8164 41.666L24.3896 26.9443L17.7539 41.6221L8.87695 37.0518L19.0283 23.3848L3.33984 21.9346L4.83398 12.6182L21.4014 17.4082L19.6436 0.621094H29.4434Z" fill="#EE6464"/>
<path d="M124.443 0.621094L122.686 17.4082L139.561 12.6182L140.879 21.9785L125.103 23.3848L135.342 37.0518L126.816 41.666L119.39 26.9443L112.754 41.6221L103.877 37.0518L114.028 23.3848L98.3398 21.9346L99.834 12.6182L116.401 17.4082L114.644 0.621094H124.443Z" fill="#EE6464"/>
<path d="M219.443 0.621094L217.686 17.4082L234.561 12.6182L235.879 21.9785L220.103 23.3848L230.342 37.0518L221.816 41.666L214.39 26.9443L207.754 41.6221L198.877 37.0518L209.028 23.3848L193.34 21.9346L194.834 12.6182L211.401 17.4082L209.644 0.621094H219.443Z" fill="#EE6464"/>
</svg>
